<svg id="dashboard_button" xmlns="http://www.w3.org/2000/svg" width="34.551" height="20.64" viewBox="0 0 34.551 20.64">
  <g id="noun_581632_cc">
    <circle id="Elipse_756" data-name="Elipse 756" cx="2.587" cy="2.587" r="2.587" transform="translate(0.116 14.688)" fill="#42a964"/>
    <circle id="Elipse_757" data-name="Elipse 757" cx="2.587" cy="2.587" r="2.587" transform="translate(19.086 12.963)" fill="#42a964"/>
    <path id="Caminho_920" data-name="Caminho 920" d="M32.527,8a2.883,2.883,0,0,0-2.841,2.91,2.938,2.938,0,0,0,.454,1.562l-6.88,8.38a2.752,2.752,0,0,0-1.149-.255,2.8,2.8,0,0,0-2.016.867l-5.93-3.543a2.965,2.965,0,0,0,0-.523,2.917,2.917,0,0,0-.984-2.023,2.807,2.807,0,0,0-2.064-.688,2.89,2.89,0,0,0-2.58,3.075,2.924,2.924,0,0,0,.557,1.548L5.262,23.239a2.752,2.752,0,0,0-1.452-.42,2.91,2.91,0,1,0,0,5.82,2.883,2.883,0,0,0,2.841-2.91,2.931,2.931,0,0,0-.42-1.507l3.9-4.025a2.752,2.752,0,0,0,1.218.3h.186a2.814,2.814,0,0,0,2.14-1.259l5.738,3.44a2.931,2.931,0,0,0-.138.853,2.841,2.841,0,0,0,5.683,0,2.924,2.924,0,0,0-.619-1.8l6.79-8.256a2.752,2.752,0,0,0,1.376.392A2.934,2.934,0,0,0,32.527,8ZM3.81,27.264a1.534,1.534,0,1,1,1.534-1.534A1.534,1.534,0,0,1,3.81,27.264Zm7.63-8.153a1.424,1.424,0,0,1-1.032-.358,1.548,1.548,0,0,1-.5-1.073,1.514,1.514,0,0,1,1.376-1.631h.1a1.417,1.417,0,0,1,.943.358,1.548,1.548,0,0,1,.523,1.073,1.514,1.514,0,0,1-1.41,1.631Zm10.678,5.93a1.534,1.534,0,1,1,1.465-1.534,1.507,1.507,0,0,1-1.465,1.534Zm10.409-12.6a1.534,1.534,0,1,1,1.465-1.534,1.5,1.5,0,0,1-1.465,1.534Z" transform="translate(-0.9 -8)" fill="#42a964"/>
  </g>
</svg>
