<svg id="Componente_52_1" data-name="Componente 52 – 1" xmlns="http://www.w3.org/2000/svg" width="48" height="48" viewBox="0 0 48 48">
  <g id="Retângulo_17444" data-name="Retângulo 17444" fill="#a2a2a2" stroke="#707070" stroke-width="1" opacity="0">
    <rect width="48" height="48" rx="5" stroke="none"/>
    <rect x="0.5" y="0.5" width="47" height="47" rx="4.5" fill="none"/>
  </g>
  <g id="filter" transform="translate(6.5 7)">
    <path id="Caminho_34640" data-name="Caminho 34640" d="M13.5,23.625A1.125,1.125,0,0,1,14.625,22.5h6.75a1.125,1.125,0,0,1,0,2.25h-6.75A1.125,1.125,0,0,1,13.5,23.625ZM9,16.875a1.125,1.125,0,0,1,1.125-1.125h15.75a1.125,1.125,0,0,1,0,2.25H10.125A1.125,1.125,0,0,1,9,16.875Zm-4.5-6.75A1.125,1.125,0,0,1,5.625,9h24.75a1.125,1.125,0,0,1,0,2.25H5.625A1.125,1.125,0,0,1,4.5,10.125Z" fill="#707070" fill-rule="evenodd"/>
  </g>
</svg>
