<svg xmlns="http://www.w3.org/2000/svg" width="17.274" height="16" viewBox="0 0 17.274 16">
  <g id="noun_date_2149188" transform="translate(396 -146.697)">
    <g id="Grupo_2195" data-name="Grupo 2195" transform="translate(-396 146.697)">
      <path id="Caminho_2042" data-name="Caminho 2042" d="M27.257,31.274H26.124V30.6a.6.6,0,0,0-1.2,0v.673H16.6V30.6a.6.6,0,0,0-1.2,0v.673H14.018A2.012,2.012,0,0,0,12,33.281v10.7A2.019,2.019,0,0,0,14.018,46H27.257a2.021,2.021,0,0,0,2.018-2.018v-10.7A2.01,2.01,0,0,0,27.257,31.274Zm.814,12.708a.814.814,0,0,1-.814.814H14.018a.814.814,0,0,1-.814-.814V36.336H28.071ZM13.2,35.133V33.281a.805.805,0,0,1,.814-.8H15.4v.45a.6.6,0,0,0,1.2,0v-.45H24.92v.45a.6.6,0,1,0,1.2,0v-.45h1.133a.805.805,0,0,1,.814.8v1.851Z" transform="translate(-12 -30)" fill="#97a3b5"/>
    </g>
  </g>
</svg>
