<svg id="Componente_60_1" data-name="Componente 60 – 1" xmlns="http://www.w3.org/2000/svg" width="40" height="40" viewBox="0 0 40 40">
  <g id="Retângulo_17443" data-name="Retângulo 17443" fill="#aaa" stroke="#707070" stroke-width="1" opacity="0">
    <rect width="40" height="40" stroke="none"/>
    <rect x="0.5" y="0.5" width="39" height="39" fill="none"/>
  </g>
  <g id="bx-package" transform="translate(2.001 1.985)">
    <path id="Caminho_34638" data-name="Caminho 34638" d="M7.587,12.008l10.371,5.8,4.021-2.235L11.728,9.716ZM27,16.237V21l-3,1.5V17.916l-4.5,2.517,0,8.518L30,23.116V14.559ZM16.5,20.431,6,14.558v8.559l10.5,5.835Zm8.546-6.561L28.411,12,18.03,6.229,14.8,8.016Z" fill="none"/>
    <path id="Caminho_34639" data-name="Caminho 34639" d="M32.989,11.925a1.44,1.44,0,0,0-.044-.321c-.011-.038-.032-.074-.045-.111a1.554,1.554,0,0,0-.1-.247,1.148,1.148,0,0,0-.086-.112,1.461,1.461,0,0,0-.153-.195c-.035-.033-.08-.06-.117-.091a1.4,1.4,0,0,0-.18-.141c-.006-.005-.013-.005-.021-.009l-.012-.009L18.758,3.2a1.5,1.5,0,0,0-1.455,0L3.771,10.687a.063.063,0,0,1-.017.015l-.015.006c-.053.03-.091.074-.141.109a1.6,1.6,0,0,0-.159.123,1.353,1.353,0,0,0-.118.153,1.331,1.331,0,0,0-.118.156,1.377,1.377,0,0,0-.088.209.982.982,0,0,0-.061.15,1.462,1.462,0,0,0-.044.315c0,.026-.011.048-.011.075V24a1.5,1.5,0,0,0,.772,1.311l13.467,7.481,0,0,0,0,.03.017a1.533,1.533,0,0,0,.2.081,1.232,1.232,0,0,0,.146.058,1.519,1.519,0,0,0,.759,0,1.477,1.477,0,0,0,.146-.058,1.407,1.407,0,0,0,.2-.081l.03-.017,0,0,0,0,13.467-7.481A1.5,1.5,0,0,0,33,24V12c0-.026-.009-.046-.011-.072ZM17.957,17.808l-10.37-5.8L11.73,9.716l10.251,5.857-4.023,2.235Zm.072-11.579L28.411,12l-3.366,1.871L14.8,8.017,18.029,6.23ZM6,14.558l10.5,5.874v8.52L6,23.117ZM19.5,28.952l0-8.518L24,17.916V22.5L27,21V16.238l3-1.679v8.558Z" fill="#707070"/>
  </g>
</svg>
