<svg xmlns="http://www.w3.org/2000/svg" width="17.249" height="17.25" viewBox="0 0 17.249 17.25">
  <g id="print" transform="translate(-1.125 -1.125)">
    <path id="Caminho_34540" data-name="Caminho 34540" d="M15.643,5.153V1.125H3.856V5.153A2.878,2.878,0,0,0,1.125,8.025v6.9H3.569v-1.15H2.275V8.025A1.727,1.727,0,0,1,4,6.3H15.5a1.727,1.727,0,0,1,1.725,1.725v5.75H15.643v1.15h2.731v-6.9A2.878,2.878,0,0,0,15.643,5.153Zm-1.15,0H5.006V2.275h9.487Z" fill="#97a3b5"/>
    <path id="Caminho_34541" data-name="Caminho 34541" d="M27.844,14.063h1.15v1.15h-1.15Z" transform="translate(-13.063 -6.326)" fill="#97a3b5"/>
    <path id="Caminho_34542" data-name="Caminho 34542" d="M6.781,18.563H5.344v1.15H6.782V26.9h9.775V19.713h1.438v-1.15Zm8.625,7.187H7.931V19.713h7.475Z" transform="translate(-2.063 -8.526)" fill="#97a3b5"/>
  </g>
</svg>
