<svg xmlns="http://www.w3.org/2000/svg" xmlns:xlink="http://www.w3.org/1999/xlink" width="219.925" height="71.495" viewBox="0 0 219.925 71.495">
  <defs>
    <clipPath id="clip-path">
      <rect id="Retângulo_17413" data-name="Retângulo 17413" width="219.925" height="71.495" fill="none"/>
    </clipPath>
  </defs>
  <g id="Grupo_40621" data-name="Grupo 40621" transform="translate(0 0)">
    <g id="Grupo_40620" data-name="Grupo 40620" transform="translate(0 0)" clip-path="url(#clip-path)">
      <path id="Caminho_34559" data-name="Caminho 34559" d="M87.394,64.448h-6.78s-.738-2.966,0-3.373c2.54-1.4,17.863,0,17.863,0v3.373s-6.105-1.555-6.781,0c-2.151,4.957,0,19.343,0,19.343h-4.3Z" transform="translate(-17.08 -12.86)" fill="#1f4422"/>
      <path id="Caminho_34560" data-name="Caminho 34560" d="M0,80.655,2.616,77.8c1.239,1.893,2.526,3.958,6.093,2.857,2.532-.783,4.027-1.273,4.027-3.1,0-1.481-.107-3.747-3.133-3.029l-2.788-.62c-3.785-.826-5.747-2.994-5.747-6.023,0-4.027,3.476-7.125,8.432-7.125,3.132,0,6.3,1.239,7.641,3.236l-2.719,2.719c-1.068-1.652-3.189-2.148-5.094-2.444C5.488,63.676,5.4,65.614,5.4,67.4c0,1.618.95,2.817,3.1,2.96l2.788.62c3.648.791,6.361,3.014,5.782,6.092-1.334,7.09-3.441,7.09-8.708,7.09-3.3,0-6.849-1.273-8.364-3.51" transform="translate(0 -12.926)" fill="#1f4422"/>
      <path id="Caminho_34561" data-name="Caminho 34561" d="M31.614,61.218c.714-.8,4.3,0,4.3,0s8.512,20.226,8.364,22.716c-.068,1.142-4.578,0-4.578,0l-1.618-4.819s-6.991-1.275-8.776,0c-1.037.74-1.652,4.819-1.652,4.819H23.286s6.171-20.285,8.328-22.716M30.272,75.984h6.885S35.238,63.714,33.715,65.9c-1.724,2.472-3.443,10.085-3.443,10.085" transform="translate(-4.954 -12.948)" fill="#1f4422"/>
      <path id="Caminho_34562" data-name="Caminho 34562" d="M53.436,61.2s3.034-.462,3.889,0c4.128,2.23,10.292,15.695,10.292,15.695V61.2s4.137-.957,3.923,0c-1.2,5.368,0,22.716,0,22.716s-3.626.936-3.889,0C67,81.6,57.36,68.222,57.36,68.222V83.916s-3.849.978-3.924,0a164.7,164.7,0,0,1,0-22.716" transform="translate(-11.284 -12.929)" fill="#1f4422"/>
      <path id="Caminho_34563" data-name="Caminho 34563" d="M105.519,72.581a10.872,10.872,0,0,1,10.773-11.7c6.092,0,9.486,3.582,10.773,11.7,1,6.323-4.681,11.7-10.773,11.7s-9.748-.359-10.773-11.7m16.969,0c-.366-4.839-2.478-8.054-6.2-8.054-3.751,0-7.618,3.331-6.195,8.054,1.39,4.614,2.444,8.054,6.195,8.054,3.717,0,6.779-.339,6.2-8.054" transform="translate(-22.439 -12.951)" fill="#1f4422"/>
      <path id="Caminho_34564" data-name="Caminho 34564" d="M180.113,61.213c1.656-.361,13.764,0,13.764,0v3.373s-8.387-1.8-10.189,0c-1.064,1.065-.726,6.023-.726,6.023h9.985s.6,2.777,0,3.373c-1.637,1.637-9.985,0-9.985,0s-.436,5.412.726,6.574c1.8,1.8,10.189,0,10.189,0v3.373s-12.525,1.248-13.764,0-2.181-22.242,0-22.716" transform="translate(-38.04 -12.988)" fill="#1f4422"/>
      <path id="Caminho_34565" data-name="Caminho 34565" d="M230.8,61.25h8.054c6.918,0,11.5,4.681,11.5,11.358s-4.578,11.359-11.5,11.359H230.8Zm4.3,3.3c-2.848,2.848,0,16.108,0,16.108h3.545c7.547,0,4.943-3.413,7.125-8.054,1.8-3.835-2.478-8.054-7.125-8.054,0,0-2.918-.627-3.545,0" transform="translate(-49.101 -13.03)" fill="#1f4422"/>
      <path id="Caminho_34566" data-name="Caminho 34566" d="M149.064,61.169s3.674-.672,4.612,0c3.777,2.7,5.989,17.588,5.989,17.588l5.989-17.588h4.371L161.7,83.886s-4.188,1.07-4.3,0c-.823-7.707-8.329-22.716-8.329-22.716" transform="translate(-31.712 -12.95)" fill="#1f4422"/>
      <path id="Caminho_34567" data-name="Caminho 34567" d="M203.816,61.17h6.953c6.23,0,9.671,2.2,9.671,6.265,0,3.062-2.2,5.094-5.989,5.542v.068c3.614.276,4.77,4.3,5.334,5.37v1.548a6.352,6.352,0,0,0,1.033,3.925h-4.44a5.371,5.371,0,0,1-.964-3.58V78.724c.428-1.377-1.136-4.164-4.061-4.164h-3.236v9.327s-4.447,1.065-4.3,0a99.178,99.178,0,0,0,0-22.717m4.3,3.236s-1.253,5.838,0,7.091c.45.45,2.548,0,2.548,0,3.51,0,5.582-1.132,5.2-3.546-.864-5.423-1.686-3.545-5.2-3.545Z" transform="translate(-43.359 -13.013)" fill="#1f4422"/>
      <path id="Caminho_34568" data-name="Caminho 34568" d="M261.518,60.961c1.656-.361,13.764,0,13.764,0v3.373s-8.387-1.8-10.189,0c-1.064,1.065-.726,6.023-.726,6.023h9.985s.6,2.777,0,3.373c-1.637,1.637-9.985,0-9.985,0s-.436,5.412.726,6.574c1.8,1.8,10.189,0,10.189,0v3.373s-12.525,1.248-13.764,0-2.181-22.242,0-22.716" transform="translate(-55.358 -12.935)" fill="#1f4422"/>
      <path id="Caminho_34569" data-name="Caminho 34569" d="M187.9,19.432l-21.461.01,11.4-10.651S182.4,11.78,187.9,19.432" transform="translate(-35.408 -1.87)" fill="#1f4422"/>
      <path id="Caminho_34570" data-name="Caminho 34570" d="M147.295,18.179h12.3C157.381,10.77,171.8,6.624,171.8,6.624a36.793,36.793,0,0,0-8.733-3.768Z" transform="translate(-31.335 -0.608)" fill="#1f4422"/>
      <path id="Caminho_34571" data-name="Caminho 34571" d="M187.645,23.9l-21.461-.01,11.4,10.651A48.981,48.981,0,0,0,187.645,23.9" transform="translate(-35.354 -5.083)" fill="#1f4422"/>
      <path id="Caminho_34572" data-name="Caminho 34572" d="M147.039,23.894h12.3c.155,6.467,12.208,11.555,12.208,11.555a36.807,36.807,0,0,1-8.733,3.768Z" transform="translate(-31.281 -5.083)" fill="#1f4422"/>
      <path id="Caminho_34573" data-name="Caminho 34573" d="M125.655,18.8q.014-.675.029-1.35c2.219.325,4.144.61,6.052-.569.577-.357,1.687-.634,1.56-1.3-2.4-12.659,9.628-9.24,14.442-13.861a16.627,16.627,0,0,0-13.614-.5,17.832,17.832,0,0,0-9.938,10.045,22.514,22.514,0,0,0-9.268-7.894c-4.132-2.181-9.255-2.622-13.913-2.258C90.2,1.959,83.32,13.476,86.392,23.576A18.959,18.959,0,0,0,97.414,35.515c5.213,2.053,13.863,1.422,16.2-1.218,3.082-3.477-1.07-5.783-.042-8.38-3.251,8.217-8.3,7.814-12.73,6.4C94.986,30.443,89.619,23.1,90.571,16.771a13.8,13.8,0,0,1,2.922-6.081,14.515,14.515,0,0,1,3.791-3.723c3.8-2.356,8.706-1.638,12.989-.369,2.341.693,7.392,2.205,10.512,7.242,2.376,3.839,2.067,8.909,4.626,12.729,1.805,2.695,3.758,5.39,6.449,7.2,4.683,3.151,10.242,3.092,15.472.97-4.94-4.757-17.021-2.175-14.819-14.269.142-.779-1.158-1.11-1.886-1.423-1.772-.761-3.08.131-4.971-.249" transform="translate(-18.223 0)" fill="#1f4422"/>
    </g>
  </g>
</svg>
