<svg xmlns="http://www.w3.org/2000/svg" xmlns:xlink="http://www.w3.org/1999/xlink" width="29.308" height="32.258" viewBox="0 0 29.308 32.258">
  <defs>
    <clipPath id="clip-path">
      <rect id="Retângulo_17437" data-name="Retângulo 17437" width="29.308" height="32.258" transform="translate(0 0)" fill="none"/>
    </clipPath>
  </defs>
  <g id="Grupo_40663" data-name="Grupo 40663" transform="translate(0 0)">
    <g id="Grupo_40662" data-name="Grupo 40662" transform="translate(0 0)" clip-path="url(#clip-path)">
      <path id="Caminho_34631" data-name="Caminho 34631" d="M74.481,10.967l-7.395,0,3.93-3.67a15.242,15.242,0,0,1,3.465,3.666" transform="translate(-45.173 -4.916)" fill="#1f4422"/>
      <path id="Caminho_34632" data-name="Caminho 34632" d="M51.188,7.652h4.238C54.663,5.1,59.632,3.67,59.632,3.67a12.673,12.673,0,0,0-3.009-1.3Z" transform="translate(-34.468 -1.597)" fill="#1f4422"/>
      <path id="Caminho_34633" data-name="Caminho 34633" d="M74.269,19.847l-7.395,0,3.93,3.67a16.875,16.875,0,0,0,3.465-3.666" transform="translate(-45.03 -13.361)" fill="#1f4422"/>
      <path id="Caminho_34634" data-name="Caminho 34634" d="M50.975,19.843h4.238c.054,2.228,4.207,3.981,4.207,3.981a12.673,12.673,0,0,1-3.009,1.3Z" transform="translate(-34.324 -13.361)" fill="#1f4422"/>
      <path id="Caminho_34635" data-name="Caminho 34635" d="M13.781,6.478l.01-.465a2.878,2.878,0,0,0,2.086-.2c.2-.123.581-.218.538-.448-.827-4.362,3.318-3.184,4.976-4.776A5.73,5.73,0,0,0,16.7.42a6.146,6.146,0,0,0-3.425,3.461,7.755,7.755,0,0,0-3.193-2.72A8.952,8.952,0,0,0,5.288.383,6.023,6.023,0,0,0,.253,8.124a6.534,6.534,0,0,0,3.8,4.113c1.8.708,4.777.49,5.583-.419,1.062-1.2-.369-1.993-.014-2.888-1.12,2.831-2.86,2.693-4.386,2.2a5.424,5.424,0,0,1-3.54-5.356A4.753,4.753,0,0,1,2.7,3.683,5,5,0,0,1,4.006,2.4c1.308-.812,3-.564,4.476-.127a5.985,5.985,0,0,1,3.622,2.5c.819,1.322.712,3.069,1.594,4.386a8.672,8.672,0,0,0,2.222,2.481,5.551,5.551,0,0,0,5.331.334c-1.7-1.639-5.865-.749-5.106-4.917.049-.269-.4-.383-.65-.49-.611-.262-1.061.045-1.713-.086" transform="translate(0 0)" fill="#1f4422"/>
      <path id="Caminho_34636" data-name="Caminho 34636" d="M43.831,49.361s2.273-.463,2.853,0c2.336,1.865,3.7,12.131,3.7,12.131l3.7-12.131h2.7L51.645,65.029s-2.591.738-2.662,0c-.509-5.316-5.152-15.668-5.152-15.668" transform="translate(-29.514 -33.099)" fill="#1f4422"/>
      <path id="Caminho_34637" data-name="Caminho 34637" d="M2.892,62.63,4.664,60.7c.839,1.282,1.711,2.681,4.127,1.935,1.715-.53,2.727-.863,2.727-2.1,0-1-.072-2.538-2.122-2.052l-1.889-.42c-2.564-.56-3.893-2.028-3.893-4.08,0-2.728,2.354-4.826,5.712-4.826,2.122,0,4.266.839,5.176,2.191l-1.842,1.842c-.723-1.119-2.16-1.455-3.451-1.655-2.6-.4-2.658.909-2.658,2.122,0,1.1.644,1.908,2.1,2l1.888.42c2.471.536,4.309,2.042,3.916,4.127-.9,4.8-2.331,4.8-5.9,4.8-2.238,0-4.639-.862-5.665-2.378" transform="translate(-1.947 -33.099)" fill="#1f4422"/>
    </g>
  </g>
</svg>
