<svg id="Grupo_40552" data-name="Grupo 40552" xmlns="http://www.w3.org/2000/svg" xmlns:xlink="http://www.w3.org/1999/xlink" width="240" height="91.747" viewBox="0 0 240 91.747">
  <defs>
    <clipPath id="clip-path">
      <rect id="Retângulo_17400" data-name="Retângulo 17400" width="240" height="91.747" fill="none"/>
    </clipPath>
  </defs>
  <g id="Grupo_40554" data-name="Grupo 40554" clip-path="url(#clip-path)">
    <path id="Caminho_34409" data-name="Caminho 34409" d="M940.947,32.211a12.391,12.391,0,0,0-.984-2.041,13.439,13.439,0,0,0-5.57-4.619c-1.935-.99-3.922-1.769-5.646-2.868-.19-.122-.5.028-.577.315-.755,2.662-.995,7.783-.154,10.088a17.22,17.22,0,0,0,9.048,9.713,2.92,2.92,0,0,0,1.144.335,1.353,1.353,0,0,0,1.075-.444c.077-.067.146-.141.22-.211l-.016-.015a32.664,32.664,0,0,1-8.8-15.8A44.66,44.66,0,0,0,940,41.272q.148.17.284.349a7.937,7.937,0,0,0,1.534-3.774,11.554,11.554,0,0,0-.871-5.637" transform="translate(-770.214 -18.801)" fill="#fff"/>
    <path id="Caminho_34410" data-name="Caminho 34410" d="M1037.4,0c-4.355.043-12.194,1.96-15.3,4.255a27.106,27.106,0,0,0-10.64,17.981,4.6,4.6,0,0,0,0,1.876,2.414,2.414,0,0,0,.367.766c2.06-1.126,12.067-7.049,20.875-20.219a48.415,48.415,0,0,1-18.485,20.793c-.316.2-.6.368-.863.514a12.294,12.294,0,0,0,7.693,1.244,18.179,18.179,0,0,0,8.122-3.823,19.419,19.419,0,0,0,2.644-2.394c2.631-2.937,3.794-6.739,4.5-10.464.634-3.363.926-6.707,1.818-9.8.1-.341-.262-.735-.732-.731" transform="translate(-839.864 0)" fill="#fff"/>
    <path id="Caminho_34411" data-name="Caminho 34411" d="M969.834,162.582a4.679,4.679,0,0,1,1.268,3.139,4.748,4.748,0,0,1-1.268,3.2,5.684,5.684,0,0,1-1.751,1.207,7.959,7.959,0,0,1-3.2.6,9.56,9.56,0,0,1-1.69-.151,6.251,6.251,0,0,1-1.509-.453,5.4,5.4,0,0,1-.966-.543,6.168,6.168,0,0,1-.785-.664,4.466,4.466,0,0,1-1.268-3.2,4.535,4.535,0,0,1,1.268-3.139,6.239,6.239,0,0,1,.785-.664,5.5,5.5,0,0,1,.966-.543,6.343,6.343,0,0,1,1.509-.453,9.641,9.641,0,0,1,1.69-.151,7.973,7.973,0,0,1,3.2.6,7.572,7.572,0,0,1,1.751,1.207" transform="translate(-796.106 -133.509)" fill="#fff"/>
    <path id="Caminho_34412" data-name="Caminho 34412" d="M30.155,176.96q.054,2.65.165,6.045t.138,7.122q.027,3.727-.055,7.564t-.359,7.37a16.621,16.621,0,0,1-4.306,10.213,17.015,17.015,0,0,1-3.947,3.036,14.9,14.9,0,0,1-4.72,1.656q-.774.11-1.463.166t-1.463.055a17.194,17.194,0,0,1-3.368-.331,14.162,14.162,0,0,1-3.2-1.052,14.755,14.755,0,0,1-7.232-7.189A3.761,3.761,0,0,1,.2,208.823,3.239,3.239,0,0,1,2.054,206.8a3.366,3.366,0,0,1,2.733-.166,3.333,3.333,0,0,1,2.015,1.88,7.153,7.153,0,0,0,1.822,2.489,8.627,8.627,0,0,0,2.319,1.438,7.827,7.827,0,0,0,2.457.581,8.929,8.929,0,0,0,2.346-.138,14.986,14.986,0,0,0,1.684-.5,7.9,7.9,0,0,0,2.291-1.3,8.479,8.479,0,0,0,2.07-2.516,10.184,10.184,0,0,0,1.132-4.148q.11-1.271.166-2.653t.11-2.821a.1.1,0,0,1-.11.11,15.036,15.036,0,0,1-4.721,3.422,12.728,12.728,0,0,1-5.327,1.2,11.9,11.9,0,0,1-4.251-.773,12.057,12.057,0,0,1-3.754-2.54,14.886,14.886,0,0,1-3.478-6.073,27.666,27.666,0,0,1-1.1-8.5q.166-8.391,3.533-13.084a11.157,11.157,0,0,1,4-3.671,10.745,10.745,0,0,1,5.107-1.242,11.782,11.782,0,0,1,5.134,1.187,16.082,16.082,0,0,1,4.582,3.34v-.166a1.868,1.868,0,0,1,.027-.359,1.565,1.565,0,0,0,.028-.3,3.528,3.528,0,0,1,2.208-2.926,3.372,3.372,0,0,1,2.733-.055,3.547,3.547,0,0,1,1.96,1.932,4.042,4.042,0,0,1,.221,2.1q0,.5.028,1.767t.138,2.65M17.9,194.08a10.368,10.368,0,0,0,2.319-3.744,11.967,11.967,0,0,0,.663-4.626,15.2,15.2,0,0,0-.855-4.487,10.906,10.906,0,0,0-2.126-3.607,8.83,8.83,0,0,0-2.346-1.955,5.043,5.043,0,0,0-2.457-.688,3.9,3.9,0,0,0-3.257,1.872A10.1,10.1,0,0,0,8.4,179.955a22.983,22.983,0,0,0-.773,5.92,21.035,21.035,0,0,0,.58,5.7,7.918,7.918,0,0,0,1.9,3.662,4.025,4.025,0,0,0,2.926,1.266,5.36,5.36,0,0,0,2.484-.661A9.7,9.7,0,0,0,17.9,194.08" transform="translate(0 -139.342)" fill="#fff"/>
    <path id="Caminho_34413" data-name="Caminho 34413" d="M209.629,206.713h-.167a3.717,3.717,0,0,1-2.5-1.16,3.349,3.349,0,0,1-.946-2.539q.111-6.9-.138-13.83t-.58-13.83q-.056-.883-.083-1.767t-.083-1.767a3.22,3.22,0,0,1,.915-2.567,3.756,3.756,0,0,1,2.528-1.187,3.272,3.272,0,0,1,2.587.911,3.72,3.72,0,0,1,1.2,2.512q.056.608.056,1.27t.055,1.27a13.331,13.331,0,0,1,3.1-3.7,9.923,9.923,0,0,1,9.33-1.822,13.609,13.609,0,0,1,6.68,4.527,16.692,16.692,0,0,1,2.291,3.34q.855,1.685,1.352,2.954a3.641,3.641,0,0,1-2.1,4.638,3.423,3.423,0,0,1-2.761-.055,3.541,3.541,0,0,1-1.877-2.043,18.1,18.1,0,0,0-.939-2.015,13.678,13.678,0,0,0-1.242-1.9,9.719,9.719,0,0,0-1.546-1.573,5.208,5.208,0,0,0-1.794-.966,3.606,3.606,0,0,0-1.794-.083,3.459,3.459,0,0,0-1.077.524,10.71,10.71,0,0,0-2.484,3.975,48.216,48.216,0,0,0-1.877,5.714q-.774,2.954-1.27,5.99t-.8,6.018q-.3,2.981-.469,5.8a3.608,3.608,0,0,1-1.113,2.4,3.392,3.392,0,0,1-2.448.966" transform="translate(-170.337 -139.56)" fill="#fff"/>
    <path id="Caminho_34414" data-name="Caminho 34414" d="M412.46,206.1a15.139,15.139,0,0,1-5.024-.828,13.476,13.476,0,0,1-7.564-6.625q-2.815-5.079-2.319-12.808a29.975,29.975,0,0,1,1.408-7.481,18.851,18.851,0,0,1,3.119-5.88,14.1,14.1,0,0,1,4.472-3.754,11.181,11.181,0,0,1,10.766.221,13.888,13.888,0,0,1,4.251,4.03A18.485,18.485,0,0,1,424.33,179a32.585,32.585,0,0,1,1.049,7.619,3.6,3.6,0,0,1-3.92,3.644,42.818,42.818,0,0,0-5.935-.138q-2.954.138-6.1.359-1.1.111-2.264.166l-2.319.11a12.557,12.557,0,0,0,1.325,4.472,6.451,6.451,0,0,0,3.644,3.257,9.035,9.035,0,0,0,5.41,0,7.849,7.849,0,0,0,2.264-.966,5.5,5.5,0,0,0,1.546-1.408,3.341,3.341,0,0,1,2.291-1.463,3.416,3.416,0,0,1,2.678.635,3.345,3.345,0,0,1,1.463,2.291,3.534,3.534,0,0,1-.58,2.678,12.249,12.249,0,0,1-3.229,3.064,17.523,17.523,0,0,1-4.389,2.07,23.47,23.47,0,0,1-2.4.524,14.871,14.871,0,0,1-2.4.193m-.718-31.468a5.148,5.148,0,0,0-4.03,2.319,12.166,12.166,0,0,0-1.518,2.512,16.291,16.291,0,0,0-1.187,4.113l1.932-.111q.994-.054,1.987-.165,2.208-.11,4.417-.249t4.527-.138a14.807,14.807,0,0,0-.938-3.561,13.676,13.676,0,0,0-1.215-2.291,4.828,4.828,0,0,0-3.92-2.429Z" transform="translate(-330.079 -139.062)" fill="#fff"/>
    <path id="Caminho_34415" data-name="Caminho 34415" d="M599.666,206.1a15.139,15.139,0,0,1-5.024-.828,13.476,13.476,0,0,1-7.564-6.625q-2.815-5.079-2.319-12.808a29.98,29.98,0,0,1,1.408-7.481,18.849,18.849,0,0,1,3.119-5.88,14.1,14.1,0,0,1,4.472-3.754,11.181,11.181,0,0,1,10.766.221,13.887,13.887,0,0,1,4.251,4.03,18.485,18.485,0,0,1,2.76,6.018,32.586,32.586,0,0,1,1.049,7.619,3.6,3.6,0,0,1-3.92,3.644,42.817,42.817,0,0,0-5.935-.138q-2.954.138-6.1.359-1.1.111-2.264.166l-2.319.11a12.558,12.558,0,0,0,1.325,4.472,6.451,6.451,0,0,0,3.644,3.257,9.035,9.035,0,0,0,5.41,0,7.846,7.846,0,0,0,2.264-.966,5.5,5.5,0,0,0,1.546-1.408,3.341,3.341,0,0,1,2.291-1.463,3.416,3.416,0,0,1,2.677.635,3.345,3.345,0,0,1,1.463,2.291,3.534,3.534,0,0,1-.58,2.678,12.249,12.249,0,0,1-3.229,3.064,17.523,17.523,0,0,1-4.389,2.07,23.467,23.467,0,0,1-2.4.524,14.87,14.87,0,0,1-2.4.193m-.718-31.468a5.148,5.148,0,0,0-4.03,2.319,12.168,12.168,0,0,0-1.518,2.512,16.29,16.29,0,0,0-1.187,4.113l1.932-.111q.994-.054,1.987-.165,2.208-.11,4.417-.249t4.527-.138a14.813,14.813,0,0,0-.938-3.561,13.68,13.68,0,0,0-1.215-2.291,4.828,4.828,0,0,0-3.92-2.429Z" transform="translate(-485.541 -139.062)" fill="#fff"/>
    <path id="Caminho_34416" data-name="Caminho 34416" d="M778.885,205.755h-.055a3.612,3.612,0,0,1-2.429-.994,3.515,3.515,0,0,1-1.1-2.374l-2.043-30.861a3.355,3.355,0,0,1,.883-2.595,3.583,3.583,0,0,1,2.484-1.215,3.358,3.358,0,0,1,2.594.883,3.583,3.583,0,0,1,1.215,2.484l.331,4.913q.5-1.214,1.049-2.264a15.615,15.615,0,0,1,3.257-4.527,7.389,7.389,0,0,1,3.064-1.794,9.077,9.077,0,0,1,2.567-.3,9.966,9.966,0,0,1,2.429.635,7.782,7.782,0,0,1,2.816,2.07,14.8,14.8,0,0,1,2.76,4.693A45.411,45.411,0,0,1,801.3,186.1q.385,2.927.552,5.742t.221,5q.054,2.182.055,3.588v1.518a3.655,3.655,0,0,1-1.077,2.485,3.369,3.369,0,0,1-2.512,1.049.049.049,0,0,1-.055-.055,3.326,3.326,0,0,1-2.512-1.076,3.6,3.6,0,0,1-1.021-2.567q0-2.594-.055-4.693t-.221-4.775q-.166-2.677-.5-5.438a40.422,40.422,0,0,0-2.153-9.772,8.849,8.849,0,0,0-1.159-2.181,2.549,2.549,0,0,0-.662-.635,5.01,5.01,0,0,0-.607.5,7.475,7.475,0,0,0-1.27,1.9,31.7,31.7,0,0,0-1.711,4.141,64.512,64.512,0,0,0-1.932,7.2q-.608,2.706-1.021,5.3t-.69,4.637q-.277,2.043-.552,4.527a3.547,3.547,0,0,1-3.533,3.257" transform="translate(-642.124 -138.767)" fill="#fff"/>
    <path id="Caminho_34417" data-name="Caminho 34417" d="M981.8,237.3a34.822,34.822,0,0,1,.471,6.625q-.083,3.312-.248,6.349-.111,2.1-.166,4.03a16.408,16.408,0,0,0,.166,3.2,3.457,3.457,0,0,1-.669,2.678,3.508,3.508,0,0,1-2.391,1.408,2,2,0,0,1-.556.055,3.655,3.655,0,0,1-3.561-3.036,23.925,23.925,0,0,1-.221-4.085q.054-2.208.221-4.638.111-2.76.166-5.714a32.186,32.186,0,0,0-.387-5.714,3.446,3.446,0,0,1,.668-2.65,3.657,3.657,0,0,1,2.335-1.491,3.509,3.509,0,0,1,2.671.663,3.626,3.626,0,0,1,1.5,2.319" transform="translate(-809.319 -194.553)" fill="#fff"/>
    <path id="Caminho_34418" data-name="Caminho 34418" d="M1062.305,206.1a15.139,15.139,0,0,1-5.024-.828,13.475,13.475,0,0,1-7.564-6.625q-2.815-5.079-2.319-12.808a29.972,29.972,0,0,1,1.408-7.481,18.847,18.847,0,0,1,3.119-5.88,14.094,14.094,0,0,1,4.472-3.754,11.181,11.181,0,0,1,10.766.221,13.887,13.887,0,0,1,4.251,4.03,18.487,18.487,0,0,1,2.76,6.018,32.586,32.586,0,0,1,1.049,7.619,3.6,3.6,0,0,1-3.92,3.644,42.816,42.816,0,0,0-5.935-.138q-2.954.138-6.1.359-1.1.111-2.264.166l-2.319.11a12.557,12.557,0,0,0,1.325,4.472,6.451,6.451,0,0,0,3.644,3.257,9.035,9.035,0,0,0,5.41,0,7.847,7.847,0,0,0,2.264-.966,5.491,5.491,0,0,0,1.546-1.408,3.341,3.341,0,0,1,2.291-1.463,3.416,3.416,0,0,1,2.677.635,3.344,3.344,0,0,1,1.463,2.291,3.533,3.533,0,0,1-.58,2.678,12.248,12.248,0,0,1-3.229,3.064,17.521,17.521,0,0,1-4.389,2.07,23.454,23.454,0,0,1-2.4.524,14.868,14.868,0,0,1-2.4.193m-.718-31.468a5.148,5.148,0,0,0-4.03,2.319,12.163,12.163,0,0,0-1.518,2.512,16.275,16.275,0,0,0-1.187,4.113l1.932-.111q.994-.054,1.987-.165,2.207-.11,4.417-.249t4.527-.138a14.8,14.8,0,0,0-.938-3.561,13.667,13.667,0,0,0-1.215-2.291,4.828,4.828,0,0,0-3.92-2.429Z" transform="translate(-869.731 -139.062)" fill="#fff"/>
    <path id="Caminho_34419" data-name="Caminho 34419" d="M1241.044,206.713h-.167a3.717,3.717,0,0,1-2.5-1.16,3.349,3.349,0,0,1-.945-2.539q.111-6.9-.138-13.83t-.58-13.83q-.055-.883-.083-1.767t-.083-1.767a3.22,3.22,0,0,1,.915-2.567,3.756,3.756,0,0,1,2.527-1.187,3.271,3.271,0,0,1,2.587.911,3.72,3.72,0,0,1,1.2,2.512q.055.608.056,1.27t.055,1.27a13.334,13.334,0,0,1,3.1-3.7,9.923,9.923,0,0,1,9.33-1.822,13.609,13.609,0,0,1,6.68,4.527,16.687,16.687,0,0,1,2.291,3.34q.856,1.685,1.353,2.954a3.641,3.641,0,0,1-2.1,4.638,3.423,3.423,0,0,1-2.76-.055,3.543,3.543,0,0,1-1.877-2.043,18.071,18.071,0,0,0-.939-2.015,13.668,13.668,0,0,0-1.242-1.9,9.717,9.717,0,0,0-1.546-1.573,5.208,5.208,0,0,0-1.794-.966,3.607,3.607,0,0,0-1.794-.083,3.458,3.458,0,0,0-1.076.524,10.7,10.7,0,0,0-2.484,3.975,48.133,48.133,0,0,0-1.877,5.714q-.774,2.954-1.27,5.99t-.8,6.018q-.3,2.981-.469,5.8a3.606,3.606,0,0,1-1.113,2.4,3.392,3.392,0,0,1-2.448.966" transform="translate(-1026.857 -139.56)" fill="#fff"/>
    <path id="Caminho_34420" data-name="Caminho 34420" d="M208.275,483.424l.224-.1c.254,1.119,1.343,1.7,2.85,1.7,1.582,0,2.582-.7,2.582-1.791,0-.9-.612-1.4-2.537-1.731-2.089-.358-2.79-.925-2.79-2,0-1.149,1.164-2.029,2.76-2.029,1.522,0,2.477.567,2.761,1.865l-.209.119c-.254-1.224-1.149-1.776-2.552-1.776-1.462,0-2.522.761-2.522,1.761,0,.985.657,1.507,2.626,1.85,2.014.343,2.7.9,2.7,1.94,0,1.239-1.1,2-2.865,2-1.552,0-2.746-.612-3.029-1.805" transform="translate(-172.958 -396.506)" fill="#fff"/>
    <path id="Caminho_34421" data-name="Caminho 34421" d="M208.275,483.424l.224-.1c.254,1.119,1.343,1.7,2.85,1.7,1.582,0,2.582-.7,2.582-1.791,0-.9-.612-1.4-2.537-1.731-2.089-.358-2.79-.925-2.79-2,0-1.149,1.164-2.029,2.76-2.029,1.522,0,2.477.567,2.761,1.865l-.209.119c-.254-1.224-1.149-1.776-2.552-1.776-1.462,0-2.522.761-2.522,1.761,0,.985.657,1.507,2.626,1.85,2.014.343,2.7.9,2.7,1.94,0,1.239-1.1,2-2.865,2C209.752,485.229,208.559,484.617,208.275,483.424Z" transform="translate(-172.958 -396.506)" fill="none" stroke="#fff" stroke-width="0.5"/>
    <path id="Caminho_34422" data-name="Caminho 34422" d="M258.228,484.885l-.015.209a.922.922,0,0,1-.537.134c-.463,0-1.074-.209-1.074-1.373v-.209c-.418,1.089-1.82,1.582-3.059,1.582-1.462,0-2.328-.657-2.328-1.761,0-1.179.806-1.805,2.745-2.164l2.641-.492v-.925a2.082,2.082,0,0,0-2.373-2.208,2.494,2.494,0,0,0-2.671,1.761l-.194-.149a2.7,2.7,0,0,1,2.865-1.821c1.686,0,2.611.851,2.611,2.417v4.059c0,.731.328,1.074.821,1.074a.944.944,0,0,0,.567-.134m-1.626-2.06V481.02l-2.477.463c-1.955.358-2.671.985-2.671,1.984,0,.97.806,1.552,2.164,1.552,1.164,0,2.984-.642,2.984-2.194" transform="translate(-208.617 -396.505)" fill="#fff"/>
    <path id="Caminho_34423" data-name="Caminho 34423" d="M258.228,484.885l-.015.209a.922.922,0,0,1-.537.134c-.463,0-1.074-.209-1.074-1.373v-.209c-.418,1.089-1.82,1.582-3.059,1.582-1.462,0-2.328-.657-2.328-1.761,0-1.179.806-1.805,2.745-2.164l2.641-.492v-.925a2.082,2.082,0,0,0-2.373-2.208,2.494,2.494,0,0,0-2.671,1.761l-.194-.149a2.7,2.7,0,0,1,2.865-1.821c1.686,0,2.611.851,2.611,2.417v4.059c0,.731.328,1.074.821,1.074A.944.944,0,0,0,258.228,484.885Zm-1.626-2.06V481.02l-2.477.463c-1.955.358-2.671.985-2.671,1.984,0,.97.806,1.552,2.164,1.552C254.781,485.02,256.6,484.378,256.6,482.826Z" transform="translate(-208.617 -396.505)" fill="none" stroke="#fff" stroke-width="0.5"/>
    <path id="Caminho_34424" data-name="Caminho 34424" d="M305.58,461.541V469h-.239v-1.985a3.1,3.1,0,0,1-3.118,2.134,2.389,2.389,0,0,1-2.611-2.641v-4.969h.239v4.939a2.22,2.22,0,0,0,2.417,2.462,2.976,2.976,0,0,0,3.074-2.865v-4.536Zm-2.85-1.239h-.224l1.268-2.194h.269Z" transform="translate(-248.806 -380.428)" fill="#fff"/>
    <path id="Caminho_34425" data-name="Caminho 34425" d="M305.58,461.541V469h-.239v-1.985a3.1,3.1,0,0,1-3.118,2.134,2.389,2.389,0,0,1-2.611-2.641v-4.969h.239v4.939a2.22,2.22,0,0,0,2.417,2.462,2.976,2.976,0,0,0,3.074-2.865v-4.536Zm-2.85-1.239h-.224l1.268-2.194h.269Z" transform="translate(-248.806 -380.428)" fill="none" stroke="#fff" stroke-width="0.5"/>
    <path id="Caminho_34426" data-name="Caminho 34426" d="M353.475,458.11V469h-.239v-2.238a2.942,2.942,0,0,1-3.044,2.387c-2.149,0-3.417-1.447-3.417-3.88s1.268-3.88,3.417-3.88a2.963,2.963,0,0,1,3.044,2.358V458.11Zm-.239,7.222v-.1c0-2.253-1.179-3.626-3-3.626-2.029,0-3.223,1.358-3.223,3.671s1.194,3.671,3.223,3.671c1.805,0,3-1.358,3-3.611" transform="translate(-287.973 -380.429)" fill="#fff"/>
    <path id="Caminho_34427" data-name="Caminho 34427" d="M353.475,458.11V469h-.239v-2.238a2.942,2.942,0,0,1-3.044,2.387c-2.149,0-3.417-1.447-3.417-3.88s1.268-3.88,3.417-3.88a2.963,2.963,0,0,1,3.044,2.358V458.11Zm-.239,7.222v-.1c0-2.253-1.179-3.626-3-3.626-2.029,0-3.223,1.358-3.223,3.671s1.194,3.671,3.223,3.671C352.042,468.943,353.236,467.585,353.236,465.332Z" transform="translate(-287.973 -380.429)" fill="none" stroke="#fff" stroke-width="0.5"/>
    <path id="Caminho_34428" data-name="Caminho 34428" d="M404.741,481.514h-6.252c.06,2.194,1.208,3.507,3.178,3.507a3.024,3.024,0,0,0,2.82-1.671l.194.1a3.221,3.221,0,0,1-3.014,1.776c-2.149,0-3.417-1.447-3.417-3.879s1.253-3.88,3.342-3.88c1.97,0,3.149,1.477,3.149,3.939Zm-6.252-.224h6.043c-.045-2.253-1.074-3.611-2.94-3.611-1.94,0-3.089,1.343-3.1,3.611" transform="translate(-330.719 -396.506)" fill="#fff"/>
    <path id="Caminho_34429" data-name="Caminho 34429" d="M404.741,481.514h-6.252c.06,2.194,1.208,3.507,3.178,3.507a3.024,3.024,0,0,0,2.82-1.671l.194.1a3.221,3.221,0,0,1-3.014,1.776c-2.149,0-3.417-1.447-3.417-3.879s1.253-3.88,3.342-3.88c1.97,0,3.149,1.477,3.149,3.939Zm-6.252-.224h6.043c-.045-2.253-1.074-3.611-2.94-3.611C399.653,477.679,398.5,479.022,398.489,481.29Z" transform="translate(-330.719 -396.506)" fill="none" stroke="#fff" stroke-width="0.5"/>
    <path id="Caminho_34430" data-name="Caminho 34430" d="M515.341,481.334c0,2.432-1.268,3.88-3.417,3.88a2.963,2.963,0,0,1-3.044-2.358V488.2h-.239V477.6h.239v2.238a2.942,2.942,0,0,1,3.044-2.388c2.149,0,3.417,1.447,3.417,3.88m-.239,0c0-2.313-1.194-3.671-3.223-3.671-1.806,0-3,1.358-3,3.611v.1c0,2.253,1.179,3.626,3,3.626,2.029,0,3.223-1.358,3.223-3.671" transform="translate(-422.392 -396.493)" fill="#fff"/>
    <path id="Caminho_34431" data-name="Caminho 34431" d="M515.341,481.334c0,2.432-1.268,3.88-3.417,3.88a2.963,2.963,0,0,1-3.044-2.358V488.2h-.239V477.6h.239v2.238a2.942,2.942,0,0,1,3.044-2.388C514.073,477.454,515.341,478.9,515.341,481.334Zm-.239,0c0-2.313-1.194-3.671-3.223-3.671-1.806,0-3,1.358-3,3.611v.1c0,2.253,1.179,3.626,3,3.626C513.908,485,515.1,483.647,515.1,481.334Z" transform="translate(-422.392 -396.493)" fill="none" stroke="#fff" stroke-width="0.5"/>
    <path id="Caminho_34432" data-name="Caminho 34432" d="M563.616,481.5h-6.252c.06,2.194,1.209,3.507,3.178,3.507a3.024,3.024,0,0,0,2.82-1.671l.194.1a3.221,3.221,0,0,1-3.014,1.776c-2.149,0-3.417-1.447-3.417-3.879s1.253-3.88,3.342-3.88c1.97,0,3.149,1.477,3.149,3.939Zm-6.252-.224h6.043c-.045-2.253-1.074-3.611-2.94-3.611-1.94,0-3.089,1.343-3.1,3.611" transform="translate(-462.654 -396.494)" fill="#fff"/>
    <path id="Caminho_34433" data-name="Caminho 34433" d="M563.616,481.5h-6.252c.06,2.194,1.209,3.507,3.178,3.507a3.024,3.024,0,0,0,2.82-1.671l.194.1a3.221,3.221,0,0,1-3.014,1.776c-2.149,0-3.417-1.447-3.417-3.879s1.253-3.88,3.342-3.88c1.97,0,3.149,1.477,3.149,3.939Zm-6.252-.224h6.043c-.045-2.253-1.074-3.611-2.94-3.611C558.528,477.664,557.379,479.007,557.364,481.275Z" transform="translate(-462.654 -396.494)" fill="none" stroke="#fff" stroke-width="0.5"/>
    <path id="Caminho_34434" data-name="Caminho 34434" d="M610.851,477.813l-.134.179a1.147,1.147,0,0,0-.955-.328c-1.388,0-2.417,1.507-2.417,3.059v4.342h-.239V477.6h.239v1.94a2.641,2.641,0,0,1,2.447-2.089,1.4,1.4,0,0,1,1.059.358" transform="translate(-504.16 -396.494)" fill="#fff"/>
    <path id="Caminho_34435" data-name="Caminho 34435" d="M610.851,477.813l-.134.179a1.147,1.147,0,0,0-.955-.328c-1.388,0-2.417,1.507-2.417,3.059v4.342h-.239V477.6h.239v1.94a2.641,2.641,0,0,1,2.447-2.089A1.4,1.4,0,0,1,610.851,477.813Z" transform="translate(-504.16 -396.494)" fill="none" stroke="#fff" stroke-width="0.5"/>
    <path id="Caminho_34436" data-name="Caminho 34436" d="M632.593,459.924v1.239h2.775v.209h-2.775v7.252h-.239v-7.252h-1.492v-.209h1.492v-1.239c0-1.417.746-2.268,1.985-2.268a1.4,1.4,0,0,1,1.149.463l-.1.179a1.221,1.221,0,0,0-1.045-.433c-1.089,0-1.746.776-1.746,2.059" transform="translate(-523.888 -380.052)" fill="#fff"/>
    <path id="Caminho_34437" data-name="Caminho 34437" d="M632.593,459.924v1.239h2.775v.209h-2.775v7.252h-.239v-7.252h-1.492v-.209h1.492v-1.239c0-1.417.746-2.268,1.985-2.268a1.4,1.4,0,0,1,1.149.463l-.1.179a1.221,1.221,0,0,0-1.045-.433C633.25,457.865,632.593,458.641,632.593,459.924Z" transform="translate(-523.888 -380.052)" fill="none" stroke="#fff" stroke-width="0.5"/>
    <path id="Caminho_34438" data-name="Caminho 34438" d="M666.779,481.334c0,2.417-1.313,3.88-3.477,3.88s-3.492-1.462-3.492-3.88,1.328-3.88,3.492-3.88,3.477,1.462,3.477,3.88m-6.73,0c0,2.283,1.239,3.671,3.253,3.671s3.238-1.388,3.238-3.671-1.224-3.671-3.238-3.671-3.253,1.388-3.253,3.671" transform="translate(-547.928 -396.493)" fill="#fff"/>
    <path id="Caminho_34439" data-name="Caminho 34439" d="M666.779,481.334c0,2.417-1.313,3.88-3.477,3.88s-3.492-1.462-3.492-3.88,1.328-3.88,3.492-3.88S666.779,478.916,666.779,481.334Zm-6.73,0c0,2.283,1.239,3.671,3.253,3.671s3.238-1.388,3.238-3.671-1.224-3.671-3.238-3.671S660.05,479.051,660.05,481.334Z" transform="translate(-547.928 -396.493)" fill="none" stroke="#fff" stroke-width="0.5"/>
    <path id="Caminho_34440" data-name="Caminho 34440" d="M716.615,477.813l-.134.179a1.147,1.147,0,0,0-.955-.328c-1.388,0-2.417,1.507-2.417,3.059v4.342h-.239V477.6h.239v1.94a2.641,2.641,0,0,1,2.447-2.089,1.4,1.4,0,0,1,1.06.358" transform="translate(-591.99 -396.494)" fill="#fff"/>
    <path id="Caminho_34441" data-name="Caminho 34441" d="M716.615,477.813l-.134.179a1.147,1.147,0,0,0-.955-.328c-1.388,0-2.417,1.507-2.417,3.059v4.342h-.239V477.6h.239v1.94a2.641,2.641,0,0,1,2.447-2.089A1.4,1.4,0,0,1,716.615,477.813Z" transform="translate(-591.99 -396.494)" fill="none" stroke="#fff" stroke-width="0.5"/>
    <path id="Caminho_34442" data-name="Caminho 34442" d="M755.047,479.98v4.909h-.239V480.01a2.353,2.353,0,0,0-2.581-2.522,2.987,2.987,0,0,0-3.059,2.91v4.521h-.239V480.04a2.353,2.353,0,0,0-2.581-2.522,2.987,2.987,0,0,0-3.059,2.91v4.491h-.239v-7.461h.239v1.985a3.09,3.09,0,0,1,3.1-2.134,2.483,2.483,0,0,1,2.745,2.223,3.077,3.077,0,0,1,3.134-2.253,2.515,2.515,0,0,1,2.775,2.7" transform="translate(-617.052 -396.348)" fill="#fff"/>
    <path id="Caminho_34443" data-name="Caminho 34443" d="M755.047,479.98v4.909h-.239V480.01a2.353,2.353,0,0,0-2.581-2.522,2.987,2.987,0,0,0-3.059,2.91v4.521h-.239V480.04a2.353,2.353,0,0,0-2.581-2.522,2.987,2.987,0,0,0-3.059,2.91v4.491h-.239v-7.461h.239v1.985a3.09,3.09,0,0,1,3.1-2.134,2.483,2.483,0,0,1,2.745,2.223,3.077,3.077,0,0,1,3.134-2.253A2.515,2.515,0,0,1,755.047,479.98Z" transform="translate(-617.052 -396.348)" fill="none" stroke="#fff" stroke-width="0.5"/>
    <path id="Caminho_34444" data-name="Caminho 34444" d="M831.807,484.87l-.015.209a.922.922,0,0,1-.537.134c-.463,0-1.074-.209-1.074-1.373v-.209c-.418,1.089-1.82,1.582-3.059,1.582-1.462,0-2.328-.657-2.328-1.761,0-1.179.806-1.805,2.746-2.164l2.641-.492v-.925a2.083,2.083,0,0,0-2.373-2.208,2.494,2.494,0,0,0-2.671,1.761l-.194-.149a2.7,2.7,0,0,1,2.865-1.821c1.686,0,2.611.851,2.611,2.417v4.059c0,.731.328,1.074.821,1.074a.944.944,0,0,0,.567-.134m-1.626-2.059v-1.805l-2.477.463c-1.955.358-2.671.985-2.671,1.984,0,.97.806,1.552,2.164,1.552,1.164,0,2.984-.642,2.984-2.194" transform="translate(-684.935 -396.493)" fill="#fff"/>
    <path id="Caminho_34445" data-name="Caminho 34445" d="M831.807,484.87l-.015.209a.922.922,0,0,1-.537.134c-.463,0-1.074-.209-1.074-1.373v-.209c-.418,1.089-1.82,1.582-3.059,1.582-1.462,0-2.328-.657-2.328-1.761,0-1.179.806-1.805,2.746-2.164l2.641-.492v-.925a2.083,2.083,0,0,0-2.373-2.208,2.494,2.494,0,0,0-2.671,1.761l-.194-.149a2.7,2.7,0,0,1,2.865-1.821c1.686,0,2.611.851,2.611,2.417v4.059c0,.731.328,1.074.821,1.074A.944.944,0,0,0,831.807,484.87Zm-1.626-2.059v-1.805l-2.477.463c-1.955.358-2.671.985-2.671,1.984,0,.97.806,1.552,2.164,1.552C828.36,485,830.181,484.363,830.181,482.811Z" transform="translate(-684.935 -396.493)" fill="none" stroke="#fff" stroke-width="0.5"/>
    <path id="Caminho_34446" data-name="Caminho 34446" d="M879.836,480.155v4.909H879.6v-4.879a2.353,2.353,0,0,0-2.582-2.522,2.987,2.987,0,0,0-3.059,2.91v4.491h-.239V477.6h.239v1.985a3.09,3.09,0,0,1,3.1-2.134,2.515,2.515,0,0,1,2.775,2.7" transform="translate(-725.563 -396.493)" fill="#fff"/>
    <path id="Caminho_34447" data-name="Caminho 34447" d="M879.836,480.155v4.909H879.6v-4.879a2.353,2.353,0,0,0-2.582-2.522,2.987,2.987,0,0,0-3.059,2.91v4.491h-.239V477.6h.239v1.985a3.09,3.09,0,0,1,3.1-2.134A2.515,2.515,0,0,1,879.836,480.155Z" transform="translate(-725.563 -396.493)" fill="none" stroke="#fff" stroke-width="0.5"/>
    <path id="Caminho_34448" data-name="Caminho 34448" d="M927.606,479.5l-.209.1a2.6,2.6,0,0,0-2.731-1.94c-2.014,0-3.193,1.388-3.193,3.671S922.608,485,924.622,485a2.7,2.7,0,0,0,2.835-2.059l.209.075a2.913,2.913,0,0,1-3.044,2.193c-2.163,0-3.387-1.462-3.387-3.88s1.268-3.88,3.432-3.88a2.808,2.808,0,0,1,2.94,2.044" transform="translate(-765.023 -396.493)" fill="#fff"/>
    <path id="Caminho_34449" data-name="Caminho 34449" d="M927.606,479.5l-.209.1a2.6,2.6,0,0,0-2.731-1.94c-2.014,0-3.193,1.388-3.193,3.671S922.608,485,924.622,485a2.7,2.7,0,0,0,2.835-2.059l.209.075a2.913,2.913,0,0,1-3.044,2.193c-2.163,0-3.387-1.462-3.387-3.88s1.268-3.88,3.432-3.88A2.808,2.808,0,0,1,927.606,479.5Z" transform="translate(-765.023 -396.493)" fill="none" stroke="#fff" stroke-width="0.5"/>
    <path id="Caminho_34450" data-name="Caminho 34450" d="M973.833,481.5h-6.252c.06,2.194,1.209,3.507,3.178,3.507a3.023,3.023,0,0,0,2.82-1.671l.194.1a3.221,3.221,0,0,1-3.014,1.776c-2.149,0-3.417-1.447-3.417-3.879s1.253-3.88,3.342-3.88c1.97,0,3.148,1.477,3.148,3.939Zm-6.252-.224h6.044c-.045-2.253-1.074-3.611-2.94-3.611-1.94,0-3.089,1.343-3.1,3.611" transform="translate(-803.311 -396.494)" fill="#fff"/>
    <path id="Caminho_34451" data-name="Caminho 34451" d="M973.833,481.5h-6.252c.06,2.194,1.209,3.507,3.178,3.507a3.023,3.023,0,0,0,2.82-1.671l.194.1a3.221,3.221,0,0,1-3.014,1.776c-2.149,0-3.417-1.447-3.417-3.879s1.253-3.88,3.342-3.88c1.97,0,3.148,1.477,3.148,3.939Zm-6.252-.224h6.044c-.045-2.253-1.074-3.611-2.94-3.611C968.745,477.664,967.6,479.007,967.581,481.275Z" transform="translate(-803.311 -396.494)" fill="none" stroke="#fff" stroke-width="0.5"/>
    <path id="Caminho_34452" data-name="Caminho 34452" d="M1079.946,475.513a2.036,2.036,0,0,1-1.432.567c-1.209,0-1.791-.7-1.791-2.029v-5.372h-1.492v-.209h1.492v-1.94l.239-.074v2.014h2.88v.209h-2.88v5.372c0,1.194.478,1.82,1.552,1.82a1.685,1.685,0,0,0,1.313-.552Z" transform="translate(-892.906 -387.36)" fill="#fff"/>
    <path id="Caminho_34453" data-name="Caminho 34453" d="M1079.946,475.513a2.036,2.036,0,0,1-1.432.567c-1.209,0-1.791-.7-1.791-2.029v-5.372h-1.492v-.209h1.492v-1.94l.239-.074v2.014h2.88v.209h-2.88v5.372c0,1.194.478,1.82,1.552,1.82a1.685,1.685,0,0,0,1.313-.552Z" transform="translate(-892.906 -387.36)" fill="none" stroke="#fff" stroke-width="0.5"/>
    <path id="Caminho_34454" data-name="Caminho 34454" d="M1114.193,481.5h-6.252c.06,2.194,1.209,3.507,3.178,3.507a3.023,3.023,0,0,0,2.82-1.671l.194.1a3.221,3.221,0,0,1-3.014,1.776c-2.149,0-3.417-1.447-3.417-3.879s1.253-3.88,3.342-3.88c1.97,0,3.148,1.477,3.148,3.939Zm-6.252-.224h6.043c-.045-2.253-1.074-3.611-2.94-3.611-1.94,0-3.089,1.343-3.1,3.611" transform="translate(-919.871 -396.494)" fill="#fff"/>
    <path id="Caminho_34455" data-name="Caminho 34455" d="M1114.193,481.5h-6.252c.06,2.194,1.209,3.507,3.178,3.507a3.023,3.023,0,0,0,2.82-1.671l.194.1a3.221,3.221,0,0,1-3.014,1.776c-2.149,0-3.417-1.447-3.417-3.879s1.253-3.88,3.342-3.88c1.97,0,3.148,1.477,3.148,3.939Zm-6.252-.224h6.043c-.045-2.253-1.074-3.611-2.94-3.611C1109.1,477.664,1107.956,479.007,1107.941,481.275Z" transform="translate(-919.871 -396.494)" fill="none" stroke="#fff" stroke-width="0.5"/>
    <path id="Caminho_34456" data-name="Caminho 34456" d="M1161.061,479.5l-.209.1a2.6,2.6,0,0,0-2.731-1.94c-2.014,0-3.193,1.388-3.193,3.671s1.134,3.671,3.149,3.671a2.7,2.7,0,0,0,2.835-2.059l.209.075a2.913,2.913,0,0,1-3.044,2.193c-2.163,0-3.387-1.462-3.387-3.88s1.268-3.88,3.432-3.88a2.808,2.808,0,0,1,2.94,2.044" transform="translate(-958.891 -396.493)" fill="#fff"/>
    <path id="Caminho_34457" data-name="Caminho 34457" d="M1161.061,479.5l-.209.1a2.6,2.6,0,0,0-2.731-1.94c-2.014,0-3.193,1.388-3.193,3.671s1.134,3.671,3.149,3.671a2.7,2.7,0,0,0,2.835-2.059l.209.075a2.913,2.913,0,0,1-3.044,2.193c-2.163,0-3.387-1.462-3.387-3.88s1.268-3.88,3.432-3.88A2.808,2.808,0,0,1,1161.061,479.5Z" transform="translate(-958.891 -396.493)" fill="none" stroke="#fff" stroke-width="0.5"/>
    <path id="Caminho_34458" data-name="Caminho 34458" d="M1209.906,464.064v4.909h-.239v-4.879a2.353,2.353,0,0,0-2.581-2.522,2.987,2.987,0,0,0-3.059,2.91v4.506h-.239V458.1h.239v5.4a3.09,3.09,0,0,1,3.1-2.134,2.515,2.515,0,0,1,2.775,2.7" transform="translate(-999.663 -380.417)" fill="#fff"/>
    <path id="Caminho_34459" data-name="Caminho 34459" d="M1209.906,464.064v4.909h-.239v-4.879a2.353,2.353,0,0,0-2.581-2.522,2.987,2.987,0,0,0-3.059,2.91v4.506h-.239V458.1h.239v5.4a3.09,3.09,0,0,1,3.1-2.134A2.515,2.515,0,0,1,1209.906,464.064Z" transform="translate(-999.663 -380.417)" fill="none" stroke="#fff" stroke-width="0.5"/>
    <rect id="Retângulo_17396" data-name="Retângulo 17396" width="0.17" height="7.8" transform="translate(79.927 80.935)" fill="#fff"/>
    <rect id="Retângulo_17397" data-name="Retângulo 17397" width="0.17" height="7.8" transform="translate(79.927 80.935)" fill="none" stroke="#fff" stroke-width="0.5"/>
    <rect id="Retângulo_17398" data-name="Retângulo 17398" width="0.17" height="7.8" transform="translate(176.921 80.935)" fill="#fff"/>
    <rect id="Retângulo_17399" data-name="Retângulo 17399" width="0.17" height="7.8" transform="translate(176.921 80.935)" fill="none" stroke="#fff" stroke-width="0.5"/>
  </g>
</svg>
