<svg id="Grupo_40664" data-name="Grupo 40664" xmlns="http://www.w3.org/2000/svg" width="32" height="32" viewBox="0 0 32 32">
  <g id="Retângulo_17383" data-name="Retângulo 17383" fill="#b00020" stroke="#707070" stroke-width="1" opacity="0">
    <rect width="32" height="32" stroke="none"/>
    <rect x="0.5" y="0.5" width="31" height="31" fill="none"/>
  </g>
  <g id="Icon_feather-wifi-off" data-name="Icon feather-wifi-off" transform="translate(4 4)">
    <path id="Caminho_34565" data-name="Caminho 34565" d="M1.5,1.5,26.3,26.3" transform="translate(-1.5 -1.5)" fill="none" stroke="#b00020" stroke-linecap="round" stroke-linejoin="round" stroke-width="3"/>
    <path id="Caminho_34566" data-name="Caminho 34566" d="M25.08,16.59a12.335,12.335,0,0,1,2.571,1.68" transform="translate(-7.356 -5.248)" fill="none" stroke="#b00020" stroke-linecap="round" stroke-linejoin="round" stroke-width="3"/>
    <path id="Caminho_34567" data-name="Caminho 34567" d="M7.5,17.935a12.335,12.335,0,0,1,5.829-2.695" transform="translate(-2.99 -4.912)" fill="none" stroke="#b00020" stroke-linecap="round" stroke-linejoin="round" stroke-width="3"/>
    <path id="Caminho_34568" data-name="Caminho 34568" d="M16.065,7.556a18.04,18.04,0,0,1,13.383,4.454" transform="translate(-5.117 -2.989)" fill="none" stroke="#b00020" stroke-linecap="round" stroke-linejoin="round" stroke-width="3"/>
    <path id="Caminho_34569" data-name="Caminho 34569" d="M2.13,12.427a17.938,17.938,0,0,1,5.3-3.247" transform="translate(-1.656 -3.407)" fill="none" stroke="#b00020" stroke-linecap="round" stroke-linejoin="round" stroke-width="3"/>
    <path id="Caminho_34570" data-name="Caminho 34570" d="M12.8,23.752a6.765,6.765,0,0,1,7.836,0" transform="translate(-4.305 -6.716)" fill="none" stroke="#b00020" stroke-linecap="round" stroke-linejoin="round" stroke-width="3"/>
    <path id="Caminho_34571" data-name="Caminho 34571" d="M18,30h0" transform="translate(-5.598 -8.578)" fill="none" stroke="#b00020" stroke-linecap="round" stroke-linejoin="round" stroke-width="3"/>
  </g>
</svg>
